<svg width="40" height="40" viewBox="0 0 40 40" fill="none" xmlns="http://www.w3.org/2000/svg">
<path d="M20 0C8.94594 0 0 8.94508 0 20C0 31.0541 8.94508 40 20 40C31.0541 40 40 31.0549 40 20C40 8.94586 31.0549 0 20 0ZM20 36.875C10.6731 36.875 3.125 29.3276 3.125 20C3.125 10.673 10.6724 3.125 20 3.125C29.3269 3.125 36.875 10.6724 36.875 20C36.875 29.327 29.3276 36.875 20 36.875Z" fill="#F9F9F9"/>
<path d="M26.8427 24.6329L22.2097 20L26.8427 15.367C27.4528 14.7569 27.4529 13.7676 26.8427 13.1573C26.2324 12.5471 25.2431 12.5472 24.6331 13.1573L20 17.7903L15.367 13.1573C14.7569 12.5471 13.7674 12.5471 13.1573 13.1573C12.5471 13.7676 12.5471 14.7569 13.1574 15.367L17.7903 20L13.1574 24.6329C12.5471 25.2432 12.547 26.2325 13.1573 26.8426C13.7677 27.4529 14.757 27.4527 15.367 26.8426L20 22.2097L24.6331 26.8426C25.2431 27.4528 26.2325 27.4529 26.8427 26.8426C27.453 26.2324 27.4529 25.2431 26.8427 24.6329Z" fill="#F9F9F9"/>
</svg>
