<svg width="620" height="493" viewBox="0 0 620 493" fill="none" xmlns="http://www.w3.org/2000/svg">
<path fill-rule="evenodd" clip-rule="evenodd" d="M7.66621 243.322C-33.975 203.881 -99.2471 191.107 -124.2 139.464C-150.338 85.37 -152.339 18.3542 -127.457 -36.329C-103.832 -88.2504 -58.5974 -101.12 -9.70121 -130.499C105.805 -158.397 121.328 -108.642 169.854 -121.333C234.427 -138.221 274.563 -260.588 331.839 -226.318C388.633 -192.336 368.617 -103.927 394.819 -43.1511C424.052 24.6552 520.386 80.1867 493.657 149.018C466.196 219.732 348.717 187.002 287.858 232.287C228.421 276.514 227.315 399.375 153.286 402.291C79.6793 405.19 61.148 293.978 7.66621 243.322Z" stroke="#FFBD59" stroke-width="2"/>
</svg>
