<svg width="556" height="329" viewBox="0 0 556 329" fill="none" xmlns="http://www.w3.org/2000/svg">
<path fill-rule="evenodd" clip-rule="evenodd" d="M457.777 406.722C443.197 462.193 463.358 525.574 430.057 572.272C395.176 621.187 337.366 655.144 277.453 659.598C220.566 663.827 172.748 623.828 123.487 595.064C80.1729 569.771 43.6389 539.411 9.19188 502.952C-36.6465 454.437 -112.393 414.786 -109.859 348.089C-107.347 281.953 -20.1953 257.026 20.5144 204.844C65.9333 146.625 68.3451 35.458 141.554 25.8255C216.764 15.9296 244.509 134.686 313.466 166.298C380.813 197.172 489.093 139.108 527.221 202.629C565.132 265.789 476.504 335.479 457.777 406.722Z" stroke="#EB6AA4" stroke-width="2"/>
</svg>
